<?xml version="1.0" standalone="no"?>
<!DOCTYPE svg PUBLIC "-//W3C//DTD SVG 20010904//EN" "http://www.w3.org/TR/2001/REC-SVG-20010904/DTD/svg10.dtd">
<svg version="1.0" xmlns="http://www.w3.org/2000/svg" width="512pt" height="512pt" viewBox="0 0 512 512"
     preserveAspectRatio="xMidYMid meet">
    <g transform="translate(0,512) scale(0.1,-0.1)" fill="#000000" stroke="none">
        <path d="M377 5105 c-173 -47 -316 -193 -362 -366 -22 -81 -22 -4277 0 -4358 46 -176 190 -320 366 -366 81 -22 4277 -22 4358 0 176 46 320 190 366 366 22 81 22 4277 0 4358 -46 176 -190 320 -366 366 -77 21 -4287 21 -4362 0z m2383 -711 c255 -44 481 -158 653 -327 43 -43 80 -77 81 -75 2 2 8 66 15 143 6 77 14 159 17 183 l6 42 224 0 224 0 0 -610 0 -610 -231 2 -230 3 -40 104 c-137 363 -389 606 -719 693 -74 20 -110 23 -285 23 -174 0 -211 -3 -283 -22 -179 -48 -315 -121 -436 -235 -275 -256 -412 -694 -392 -1243 19 -520 157 -875 422 -1086 205 -163 424 -230 754 -231 320 0 543 66 757 226 l82 61 1 337 0 338 -26 16 c-51 34 -126 46 -316 51 l-188 6 0 198 0 199 765 0 765 0 0 -199 0 -199 -157 -4 c-167 -5 -233 -20 -253 -59 -6 -10 -10 -174 -10 -406 l0 -388 -55 -61 c-253 -284 -731 -508 -1184 -553 -439 -45 -908 56 -1228 265 -405 263 -645 662 -730 1214 -22 145 -25 558 -5 695 94 630 413 1098 919 1349 206 102 393 154 648 180 81 8 343 -4 435 -20z"/>
    </g>
</svg>
